# xmcd
# Track frame offsets:
# 150
# 20535
# 40638
# 63647
# 90977
# 113748
# 135970
# 156359
# 173071
# 193227
# 215714
# 232608
#
# Disc length: 3331 seconds
# Revision: 0
# Processed by: cddbd v1.4PL0 Copyright (c) Steve Scherf et al.
# Submitted via: VisiTrax 2.9.5.181 - For more info visit www.synapsa.com
#
DISCID=960d010c
DTITLE=Peggy Scott-Adams - Busting Loose
DYEAR=2003
DGENRE=Blues
TTITLE0=If You Wanna Hear Me Hollar Lick Me Up Some Dollars
TTITLE1=I've Hade It With You
TTITLE2=Freddy This Freddy That
TTITLE3=Good Little House Wife
TTITLE4=I'm Changing (A Tribute To Johnnie Taylor)
TTITLE5=A Good Woman Thinking Bad
TTITLE6=A Woman Knows How To Please Herself
TTITLE7=Love Me Like I Want You To
TTITLE8=When Did You Leave Heaven
TTITLE9=See You Next Weekend
TTITLE10=Hi Class, Lo Class, and No Class
TTITLE11=Fresh Out Of Tears
EXTD=
EXTT0=
EXTT1=
EXTT2=
EXTT3=
EXTT4=
EXTT5=
EXTT6=
EXTT7=
EXTT8=
EXTT9=
EXTT10=
EXTT11=
PLAYORDER=
